<?xml version="1.0" standalone="no"?>
<!DOCTYPE svg PUBLIC "-//W3C//DTD SVG 20010904//EN"
 "http://www.w3.org/TR/2001/REC-SVG-20010904/DTD/svg10.dtd">
<svg version="1.0" xmlns="http://www.w3.org/2000/svg"
 width="700.000000pt" height="700.000000pt" viewBox="0 0 700.000000 700.000000"
 preserveAspectRatio="xMidYMid meet">
<metadata>
Created by potrace 1.11, written by Peter Selinger 2001-2013
</metadata>
<g transform="translate(0.000000,700.000000) scale(0.100000,-0.100000)"
fill="#000000" stroke="none">
<path d="M1020 6261 c-8 -6 -18 -7 -22 -5 -4 3 -8 0 -8 -5 0 -6 -6 -11 -13
-11 -20 0 -62 -40 -81 -77 -9 -18 -14 -33 -10 -33 4 0 2 -6 -3 -12 -14 -18
-17 -115 -4 -122 6 -4 8 -13 5 -21 -3 -7 0 -23 6 -35 9 -17 9 -21 0 -15 -9 6
-9 3 -1 -12 5 -11 13 -35 16 -54 3 -18 10 -36 14 -39 8 -5 22 -41 27 -69 2 -8
7 -17 12 -20 5 -3 13 -21 17 -39 4 -19 11 -30 17 -26 7 5 8 2 3 -6 -4 -7 -4
-15 1 -19 5 -3 21 -29 35 -58 15 -29 30 -49 33 -45 4 3 4 -1 1 -9 -3 -9 1 -22
9 -29 9 -7 13 -16 10 -21 -3 -5 2 -9 10 -9 9 0 16 -8 16 -18 0 -10 8 -27 18
-38 9 -10 23 -31 31 -46 8 -15 22 -36 32 -47 10 -10 15 -22 12 -25 -4 -3 -1
-6 5 -6 7 0 12 -6 12 -14 0 -8 7 -16 15 -20 8 -3 15 -12 15 -21 0 -8 5 -15 10
-15 6 0 10 -5 10 -10 0 -6 14 -24 30 -42 17 -17 30 -35 30 -39 0 -5 8 -17 18
-27 9 -10 31 -35 47 -56 17 -21 47 -55 68 -77 20 -21 37 -44 37 -49 0 -6 6
-10 14 -10 8 0 18 -9 21 -20 3 -11 13 -20 21 -20 8 0 14 -3 14 -7 0 -5 32 -41
70 -82 39 -40 70 -78 70 -83 0 -5 5 -6 10 -3 6 3 10 0 10 -7 0 -7 17 -32 38
-54 59 -66 83 -96 111 -139 14 -22 32 -44 39 -48 7 -5 10 -12 7 -17 -3 -4 2
-10 10 -14 8 -3 15 -10 15 -16 0 -6 18 -37 40 -69 22 -32 40 -66 40 -75 0 -9
4 -16 9 -16 9 0 61 -100 61 -118 0 -7 5 -12 11 -12 5 0 7 -4 4 -10 -3 -5 -1
-10 6 -10 7 0 9 -3 6 -6 -3 -4 -1 -16 6 -28 17 -31 37 -88 37 -108 0 -10 5
-18 11 -18 6 0 9 -9 6 -20 -3 -11 -2 -20 2 -20 9 0 30 -80 46 -175 14 -84 19
-122 18 -142 -1 -13 4 -23 9 -23 7 0 6 -5 -1 -13 -6 -9 -7 -17 -1 -23 5 -5 10
-52 11 -104 1 -58 6 -98 13 -102 8 -6 7 -8 -1 -8 -7 0 -13 -9 -13 -21 0 -13 4
-18 12 -13 9 6 9 3 -1 -9 -8 -10 -10 -24 -5 -34 10 -25 11 -36 4 -48 -8 -13
-7 -27 4 -44 5 -7 5 -16 0 -20 -11 -7 -12 -81 -1 -98 4 -6 3 -14 -2 -17 -11
-7 -9 -25 3 -45 6 -9 5 -12 0 -8 -6 3 -10 -29 -11 -79 0 -56 3 -84 11 -84 6 0
4 -5 -4 -10 -13 -9 -13 -11 0 -20 8 -5 10 -10 4 -10 -16 0 -16 -71 -1 -89 9
-11 9 -13 0 -8 -12 8 -13 -39 -1 -59 4 -5 3 -16 -2 -24 -5 -9 -4 -20 3 -29 9
-11 9 -13 0 -8 -8 5 -11 0 -10 -13 1 -11 3 -20 4 -20 2 0 19 16 37 35 19 19
39 35 45 35 6 0 11 6 11 14 0 8 9 18 20 21 11 3 20 13 20 21 0 8 7 14 15 14 8
0 15 4 15 8 0 12 159 172 171 172 5 0 9 7 9 15 0 8 7 15 15 15 8 0 15 6 15 13
0 8 11 20 25 27 14 7 23 15 21 17 -6 6 43 53 54 53 6 0 10 7 10 16 0 9 5 12
12 8 8 -5 9 -2 4 12 -4 10 -4 15 0 11 4 -4 22 8 40 27 18 19 35 32 38 29 2 -2
7 5 11 16 3 12 11 21 16 21 6 0 7 4 4 10 -4 6 1 7 11 3 12 -4 15 -3 10 5 -4 7
-1 12 8 12 9 0 16 4 16 10 0 11 47 60 53 54 2 -2 10 7 17 21 7 14 19 25 27 25
7 0 13 3 13 8 0 11 79 92 90 92 5 0 10 4 10 9 0 11 90 101 102 101 4 0 8 7 8
15 0 8 6 15 14 15 8 0 18 9 21 20 3 11 13 20 21 20 8 0 14 7 14 16 0 9 5 12
12 8 8 -5 9 -2 5 10 -4 10 -3 15 3 11 6 -3 13 1 16 9 3 9 12 16 20 16 8 0 14
6 15 13 0 6 24 32 53 57 29 25 51 49 48 53 -2 5 5 11 17 14 12 3 21 12 21 19
0 8 7 14 16 14 8 0 13 3 11 8 -5 9 60 71 68 64 3 -3 5 0 5 6 0 13 120 132 132
132 4 0 8 4 8 10 0 11 47 60 53 54 2 -2 10 7 17 21 7 13 22 27 32 31 11 3 17
8 14 11 -6 6 43 53 56 53 5 0 7 3 5 8 -3 4 1 13 9 20 8 7 14 9 14 5 1 -4 6 2
13 14 7 12 15 22 20 22 9 1 47 39 47 47 0 11 28 33 34 27 3 -4 6 1 6 10 0 10
7 17 15 17 8 0 15 4 15 8 0 12 90 102 101 102 5 0 9 7 9 15 0 8 7 15 15 15 8
0 15 4 15 8 0 13 98 111 104 104 3 -3 6 2 6 11 0 10 6 17 14 17 7 0 16 9 19
21 3 12 9 19 14 17 4 -2 27 16 49 39 23 24 40 43 37 43 -2 0 2 6 9 14 7 8 16
12 19 10 3 -2 11 8 18 23 6 14 14 23 17 20 6 -6 44 29 44 41 0 4 9 13 21 20
12 7 18 16 14 20 -11 11 -75 9 -75 -2 0 -7 -3 -8 -8 -1 -4 6 -20 11 -35 13
-22 2 -27 0 -21 -10 6 -10 4 -10 -7 -2 -16 12 -207 13 -226 1 -6 -4 -14 -3
-18 3 -9 15 -28 12 -19 -2 5 -10 4 -10 -6 -1 -8 8 -20 9 -36 3 -16 -6 -24 -6
-24 1 0 6 -7 6 -20 -1 -14 -8 -20 -8 -20 0 0 6 -5 8 -12 3 -18 -11 -42 -10
-50 2 -5 6 -8 5 -8 -4 0 -11 -3 -11 -15 -1 -8 7 -15 9 -15 4 0 -10 -211 -11
-228 -1 -6 4 -14 3 -17 -3 -5 -8 -11 -8 -20 0 -8 7 -15 7 -19 1 -6 -10 -31 -9
-42 1 -3 4 -17 3 -31 -3 -13 -5 -22 -5 -19 -1 2 4 -32 9 -77 10 -44 2 -86 7
-92 11 -5 5 -19 7 -30 5 -10 -1 -25 2 -32 8 -9 7 -13 7 -13 -2 0 -9 -4 -9 -12
-2 -7 5 -35 13 -63 17 -27 4 -56 12 -64 18 -12 10 -13 9 -6 -3 8 -13 7 -13 -8
-1 -9 7 -17 10 -17 7 0 -4 -9 -2 -21 4 -11 6 -28 13 -37 15 -38 7 -47 10 -52
17 -3 4 -17 9 -32 12 -14 2 -35 9 -46 15 -11 6 -22 7 -26 4 -3 -3 -6 -1 -6 5
0 7 -6 12 -12 12 -16 0 -102 42 -106 52 -2 4 -10 4 -18 1 -8 -3 -14 0 -14 6 0
6 -7 11 -15 11 -9 0 -18 7 -21 15 -4 8 -14 15 -24 15 -10 0 -23 7 -30 15 -7 9
-15 13 -17 11 -3 -3 -17 6 -31 20 -15 13 -32 24 -38 24 -6 0 -24 11 -40 25
-36 32 -39 34 -96 73 -27 18 -48 37 -48 42 0 6 -4 9 -8 8 -10 -4 -85 60 -166
140 -35 34 -68 62 -72 62 -5 0 -18 13 -29 29 -11 17 -21 28 -23 26 -5 -5 -62
57 -62 68 0 4 -4 5 -10 2 -5 -3 -10 -2 -10 4 0 5 -9 13 -20 16 -11 3 -20 13
-20 21 0 8 -7 14 -15 14 -8 0 -15 4 -15 8 0 4 -22 25 -50 46 -27 21 -60 49
-72 62 -13 13 -28 24 -35 24 -7 0 -17 9 -23 20 -6 11 -14 18 -19 16 -4 -3 -19
6 -33 19 -14 13 -29 21 -32 18 -3 -4 -6 1 -6 10 0 10 -7 17 -15 17 -8 0 -24 9
-35 20 -11 11 -22 20 -25 20 -9 0 -120 73 -123 82 -2 4 -8 6 -13 2 -5 -3 -9
-1 -9 4 0 6 -11 13 -24 16 -14 3 -31 12 -38 19 -21 19 -98 59 -98 50 0 -4 -7
1 -15 11 -8 11 -15 17 -15 13 0 -4 -17 1 -39 12 -21 11 -41 17 -45 14 -3 -4
-6 -1 -6 4 0 6 -18 14 -40 18 -22 4 -42 10 -45 15 -2 4 -16 6 -30 5 -14 -2
-25 2 -25 8 0 7 -5 5 -10 -3 -5 -8 -10 -10 -10 -5 0 13 -59 14 -79 1 -10 -6
-12 -6 -7 2 9 14 -3 15 -24 3z"/>
<path d="M5947 5267 c3 -5 -1 -7 -8 -6 -23 5 -108 -12 -114 -22 -4 -5 -11 -7
-16 -4 -5 4 -9 1 -9 -4 0 -6 -9 -11 -20 -11 -11 0 -20 -4 -20 -10 0 -5 -3 -9
-7 -8 -13 4 -121 -71 -163 -113 -21 -21 -41 -35 -44 -32 -3 4 -6 2 -6 -4 0
-14 -359 -373 -373 -373 -6 0 -8 -3 -5 -6 7 -6 -179 -194 -192 -194 -4 0 -10
-9 -13 -21 -3 -12 -10 -18 -16 -14 -6 3 -11 2 -11 -3 0 -13 -118 -132 -131
-132 -6 0 -7 -5 -4 -11 4 -6 -2 -13 -14 -16 -12 -3 -21 -9 -21 -13 0 -13 -188
-199 -194 -192 -3 3 -6 1 -6 -5 0 -13 -68 -83 -81 -83 -5 0 -8 -3 -7 -7 3 -11
-412 -423 -425 -423 -6 0 -8 -2 -5 -5 7 -7 -460 -475 -473 -475 -5 0 -9 -5 -9
-11 0 -13 -78 -89 -91 -89 -5 0 -8 -3 -7 -7 3 -10 -545 -558 -554 -555 -5 1
-8 -5 -8 -13 0 -8 -7 -15 -15 -15 -8 0 -15 -4 -15 -9 0 -12 -113 -126 -122
-123 -5 1 -8 -2 -8 -7 0 -12 -138 -151 -150 -151 -5 0 -10 -4 -10 -10 0 -12
-119 -130 -131 -130 -5 0 -9 -5 -9 -12 0 -13 -59 -68 -73 -68 -6 0 -8 -3 -4
-6 7 -7 -103 -118 -118 -119 -5 0 -10 -4 -10 -10 0 -5 -48 -58 -105 -116 -113
-115 -161 -169 -151 -169 3 0 1 -4 -5 -8 -6 -4 -23 -33 -38 -64 -15 -32 -32
-58 -37 -58 -5 0 -8 -3 -7 -7 1 -5 -2 -28 -7 -53 -5 -25 -8 -51 -6 -59 1 -7
-1 -11 -6 -8 -4 3 -8 -30 -8 -74 0 -43 4 -79 8 -79 5 0 6 -3 4 -8 -12 -18 46
-172 65 -172 4 0 8 -6 8 -14 0 -8 26 -40 58 -71 77 -77 87 -85 101 -85 7 0 9
-4 6 -10 -3 -6 1 -7 9 -4 9 3 16 1 16 -5 0 -6 7 -11 15 -11 8 0 15 -5 15 -11
0 -6 7 -9 15 -5 8 3 15 1 15 -4 0 -8 85 -27 103 -22 4 1 7 -2 7 -6 0 -20 238
5 284 30 11 7 28 13 36 14 8 2 20 11 28 21 7 10 16 17 20 16 12 -4 42 8 42 17
0 5 8 11 18 14 10 4 34 22 53 41 18 19 40 35 47 35 6 0 12 7 12 15 0 8 4 15 8
15 5 0 17 7 28 16 10 8 13 12 5 8 -9 -5 -12 -3 -7 4 4 7 14 12 22 12 8 0 13 3
12 8 -3 9 132 142 145 142 6 0 8 2 5 5 -6 6 254 272 263 268 3 -1 12 9 19 22
7 14 20 25 27 25 8 0 12 3 10 8 -5 9 60 71 68 64 3 -3 5 0 5 6 0 13 119 132
132 132 5 0 7 4 4 8 -3 5 7 20 22 33 15 13 27 21 28 19 0 -3 16 13 35 34 19
22 51 56 71 76 21 20 35 40 31 44 -4 4 0 4 10 0 12 -4 17 -1 17 10 0 9 7 16
16 16 8 0 13 3 11 8 -2 4 9 19 24 34 16 15 29 25 29 22 0 -3 12 9 27 28 39 48
72 78 85 78 6 0 9 3 5 6 -3 3 19 29 49 56 29 28 51 55 47 61 -3 5 -2 7 4 4 12
-7 136 117 126 127 -4 4 1 4 12 0 11 -4 17 -3 13 1 -5 5 1 15 12 22 11 8 18
19 14 24 -3 5 -1 8 4 7 6 -2 60 47 121 108 60 61 113 109 116 106 3 -3 5 1 5
10 0 8 11 21 25 28 14 7 23 15 21 17 -4 4 148 158 208 211 20 17 33 32 29 32
-4 0 3 7 15 16 12 8 19 20 16 26 -4 6 -3 8 2 5 6 -3 29 14 52 39 24 24 48 44
54 44 6 0 9 3 6 6 -7 6 41 60 52 57 4 -1 13 9 20 22 7 14 20 25 27 25 8 0 12
3 10 8 -2 4 11 21 30 39 18 17 33 29 33 26 0 -3 10 7 22 23 34 43 98 104 110
104 6 0 9 3 5 6 -8 8 48 64 64 64 7 0 10 2 7 5 -7 8 55 73 65 68 4 -2 7 0 7 5
0 12 157 171 163 166 2 -2 10 7 17 21 7 14 20 25 28 25 9 0 13 2 10 6 -3 3 44
55 106 116 61 61 110 115 108 120 -1 5 2 7 7 4 5 -4 16 3 24 14 7 11 17 17 22
12 4 -4 5 1 2 11 -4 10 -3 16 1 13 4 -2 16 2 27 10 10 8 15 14 10 14 -5 0 1 7
13 16 12 8 19 20 16 26 -4 7 -2 8 4 4 7 -4 12 -2 12 4 0 6 5 8 10 5 6 -3 10
-2 10 3 0 13 128 141 134 134 3 -3 6 -1 6 5 0 6 52 63 115 126 63 64 115 119
115 124 0 4 12 19 27 33 14 13 30 37 35 52 6 16 14 25 19 22 5 -3 9 -2 8 3 -1
4 3 22 10 38 28 66 33 81 38 110 3 17 10 36 15 43 7 8 7 12 -1 12 -7 0 -9 5
-4 13 9 13 11 177 2 172 -3 -2 -11 23 -18 56 -6 33 -16 57 -21 54 -6 -4 -10 2
-10 12 0 10 -9 29 -20 43 -11 14 -20 28 -20 33 0 11 -140 147 -152 147 -5 0
-22 9 -38 20 -15 11 -30 17 -34 13 -3 -3 -6 -2 -6 4 0 6 -28 16 -62 23 -73 15
-199 20 -191 7z"/>
<path d="M6340 3644 c-19 -19 -38 -34 -42 -34 -4 0 -8 -4 -8 -9 0 -5 -23 -31
-51 -58 -65 -62 -62 -59 -143 -142 -38 -39 -73 -71 -78 -71 -4 0 -8 -6 -8 -13
0 -8 -11 -20 -25 -27 -14 -7 -23 -15 -21 -18 5 -5 -55 -62 -65 -62 -3 0 -11
-11 -18 -24 -7 -13 -24 -29 -37 -36 -13 -7 -21 -17 -18 -22 3 -4 -2 -8 -11 -8
-9 0 -13 -4 -10 -10 3 -5 -4 -15 -17 -21 -13 -5 -33 -23 -43 -40 -11 -16 -24
-29 -28 -29 -9 0 -57 -50 -57 -60 0 -4 -10 -12 -23 -19 -13 -7 -31 -26 -41
-42 -10 -16 -22 -27 -27 -24 -5 4 -9 -1 -9 -10 0 -9 -4 -14 -8 -11 -5 3 -15
-5 -22 -18 -7 -13 -22 -29 -35 -36 -13 -7 -28 -22 -35 -35 -7 -13 -23 -29 -36
-36 -13 -7 -22 -14 -20 -17 6 -5 -76 -82 -86 -82 -5 0 -8 -4 -8 -8 0 -12 -141
-152 -153 -152 -6 0 -8 -2 -5 -5 6 -7 -82 -95 -94 -95 -4 0 -15 -14 -23 -30
-9 -17 -20 -28 -25 -25 -6 4 -10 -1 -10 -10 0 -9 -4 -14 -8 -11 -5 3 -15 -6
-22 -19 -7 -14 -19 -25 -27 -25 -7 0 -13 -3 -13 -7 0 -11 -77 -93 -82 -87 -3
2 -10 -7 -17 -20 -7 -13 -24 -30 -37 -37 -13 -6 -26 -20 -29 -30 -3 -10 -15
-21 -26 -24 -10 -4 -19 -13 -19 -21 0 -8 -4 -13 -8 -10 -5 3 -14 -5 -21 -17
-7 -12 -25 -31 -41 -42 -17 -11 -30 -23 -30 -26 0 -10 -47 -58 -52 -53 -3 2
-11 -7 -18 -21 -7 -14 -18 -25 -24 -25 -6 0 -24 -18 -40 -40 -16 -21 -32 -38
-35 -36 -3 2 -17 -11 -31 -29 -14 -18 -37 -41 -53 -52 -15 -10 -30 -26 -33
-35 -3 -9 -14 -20 -25 -23 -10 -4 -19 -10 -19 -13 0 -12 -138 -150 -144 -144
-3 3 -6 1 -6 -4 0 -13 -89 -104 -101 -104 -6 0 -8 -4 -5 -8 3 -5 -6 -15 -19
-22 -14 -7 -27 -21 -30 -30 -3 -9 -16 -22 -28 -29 -13 -7 -32 -26 -41 -42 -10
-17 -20 -28 -23 -26 -6 6 -53 -41 -53 -53 0 -6 -6 -10 -12 -10 -7 0 -24 -16
-38 -35 -14 -19 -33 -37 -42 -40 -10 -4 -18 -9 -18 -13 0 -11 -78 -91 -83 -85
-3 2 -8 -5 -12 -16 -3 -12 -13 -21 -21 -21 -8 0 -14 -7 -14 -16 0 -8 -4 -12
-10 -9 -5 3 -10 2 -10 -2 0 -13 -57 -73 -69 -73 -6 0 -11 -4 -11 -10 0 -5 -10
-18 -22 -30 -12 -11 -18 -23 -15 -27 4 -3 7 -1 7 5 0 6 13 13 30 17 17 4 30
11 30 16 0 6 4 8 8 5 5 -3 19 4 30 15 12 11 22 17 22 14 0 -3 15 2 33 11 17 9
40 21 51 26 10 6 33 18 50 27 17 10 48 23 69 30 20 7 37 17 37 22 0 5 7 9 16
9 9 0 28 7 42 15 28 15 111 40 125 37 4 -1 7 3 7 8 0 6 11 10 25 10 14 0 25 4
25 8 0 5 10 8 23 7 12 -1 24 1 27 5 5 8 66 19 103 20 10 0 16 4 13 8 -2 4 8 7
22 6 15 -1 33 3 40 9 8 6 12 6 12 -3 0 -9 4 -9 13 -2 6 6 35 11 62 13 28 1 55
5 60 8 16 9 39 7 47 -4 5 -7 8 -7 8 0 0 11 185 13 196 2 4 -3 15 -2 25 3 10 6
20 7 22 2 3 -4 34 -8 68 -10 35 -2 67 -9 71 -15 5 -9 8 -8 8 3 0 10 3 11 8 4
4 -6 17 -10 30 -9 12 1 22 -1 22 -5 0 -4 6 -7 13 -7 39 -1 124 -16 133 -24 6
-5 19 -10 30 -12 37 -7 79 -20 89 -27 6 -4 31 -13 58 -20 26 -7 47 -16 47 -19
0 -4 10 -8 22 -8 13 -1 24 -6 26 -12 2 -5 25 -15 53 -22 27 -7 49 -16 49 -19
0 -4 6 -7 13 -7 6 0 35 -4 62 -9 28 -4 79 -7 114 -6 67 1 210 38 223 56 4 6 8
8 8 3 0 -10 60 21 60 32 0 5 11 12 24 15 32 8 169 146 186 186 7 16 16 30 21
30 5 0 9 7 9 15 0 8 5 15 11 15 5 0 8 4 4 9 -3 5 -1 12 4 15 5 4 12 24 16 46
4 22 12 40 18 40 5 0 8 3 5 6 -4 3 -2 20 3 37 13 45 14 210 1 234 -6 11 -9 23
-5 26 3 4 1 12 -4 19 -6 7 -14 29 -18 48 -4 19 -15 41 -24 48 -9 7 -11 11 -4
8 6 -3 1 15 -12 41 -12 27 -26 64 -30 83 -4 19 -10 37 -14 40 -15 12 -58 173
-75 285 -2 11 -7 29 -12 39 -6 15 -4 17 7 11 11 -7 12 -6 2 6 -6 8 -13 38 -14
67 -2 29 -7 52 -12 52 -5 0 -4 7 3 15 7 8 9 15 4 15 -11 0 -11 170 -1 187 4 6
3 15 -3 18 -8 5 -7 11 1 21 9 11 9 14 0 14 -9 0 -9 5 0 21 9 17 8 23 -2 30
-10 6 -11 9 -1 9 8 0 12 16 12 46 0 33 3 43 13 38 9 -6 9 -5 0 8 -7 8 -10 17
-8 20 3 3 8 16 10 29 3 13 8 38 11 54 4 17 8 40 10 52 5 48 16 83 25 83 6 0 8
4 4 10 -3 5 1 25 9 44 8 19 12 37 8 40 -3 3 -1 6 5 6 5 0 15 25 22 55 7 30 17
55 22 55 5 0 9 6 9 13 0 7 9 30 20 52 11 22 20 45 20 52 0 7 4 13 10 13 5 0 6
7 3 17 -4 11 -3 14 5 9 8 -5 12 0 12 13 0 12 4 21 9 21 5 0 15 20 22 44 7 25
17 42 23 39 5 -4 7 1 3 10 -3 10 -2 17 3 17 6 0 10 6 10 14 0 8 3 16 8 18 8 3
44 79 40 83 -2 2 -19 -12 -38 -31z"/>
</g>
</svg>
